<mxfile host="app.diagrams.net" modified="2024-01-13T08:36:36.114Z" agent="Mozilla/5.0 (Windows NT 10.0; Win64; x64; rv:121.0) Gecko/20100101 Firefox/121.0" etag="yVzu_63tTdyEh-UPpbGv" version="22.1.18" type="device">
  <diagram id="BC79CML7Z33H3tk79keH" name="Strona-1">
    <mxGraphModel dx="1434" dy="698" grid="1" gridSize="10" guides="1" tooltips="1" connect="1" arrows="1" fold="1" page="1" pageScale="1" pageWidth="827" pageHeight="1169" math="0" shadow="0">
      <root>
        <mxCell id="0" />
        <mxCell id="1" parent="0" />
        <mxCell id="yx_y9nf9KPECeYAKMQg5-1" value="" style="whiteSpace=wrap;html=1;aspect=fixed;" parent="1" vertex="1">
          <mxGeometry x="110" y="60" width="680" height="680" as="geometry" />
        </mxCell>
        <mxCell id="yx_y9nf9KPECeYAKMQg5-2" value="&lt;div style=&quot;font-size: 18px;&quot; align=&quot;center&quot;&gt;&lt;font style=&quot;font-size: 18px;&quot;&gt;&lt;b&gt;FarmGuider &lt;font style=&quot;font-size: 18px;&quot;&gt;- Moduł Hodowlany&lt;/font&gt;&lt;br&gt;&lt;/b&gt;&lt;/font&gt;&lt;/div&gt;" style="text;html=1;strokeColor=none;fillColor=none;spacing=5;spacingTop=-20;whiteSpace=wrap;overflow=hidden;rounded=0;align=center;" parent="1" vertex="1">
          <mxGeometry x="295.63" y="80" width="308.75" height="30" as="geometry" />
        </mxCell>
        <mxCell id="yx_y9nf9KPECeYAKMQg5-13" value="&lt;font style=&quot;font-size: 12px;&quot;&gt;8. Zarządzanie hodowlą&lt;br&gt;&lt;/font&gt;&lt;font style=&quot;font-size: 12px;&quot;&gt;(Moduł hodowlany)&lt;/font&gt;" style="ellipse;whiteSpace=wrap;html=1;fontSize=18;" parent="1" vertex="1">
          <mxGeometry x="160" y="360" width="150" height="80" as="geometry" />
        </mxCell>
        <mxCell id="VzAytHsf84ptwid28OPW-6" value="Użytkownik" style="shape=umlActor;verticalLabelPosition=bottom;verticalAlign=top;html=1;outlineConnect=0;fontSize=18;" parent="1" vertex="1">
          <mxGeometry x="20" y="355" width="50" height="90" as="geometry" />
        </mxCell>
        <mxCell id="VzAytHsf84ptwid28OPW-16" style="edgeStyle=orthogonalEdgeStyle;rounded=0;orthogonalLoop=1;jettySize=auto;html=1;entryX=0;entryY=0.5;entryDx=0;entryDy=0;fontSize=12;endArrow=none;endFill=0;" parent="1" target="yx_y9nf9KPECeYAKMQg5-13" edge="1">
          <mxGeometry relative="1" as="geometry">
            <mxPoint x="80" y="400" as="sourcePoint" />
            <Array as="points">
              <mxPoint x="80" y="400" />
            </Array>
            <mxPoint x="610" y="270" as="targetPoint" />
          </mxGeometry>
        </mxCell>
        <mxCell id="VzAytHsf84ptwid28OPW-18" value="&lt;font style=&quot;font-size: 12px;&quot;&gt;8.1 Zarządzanie stadem&lt;br&gt;&lt;/font&gt;" style="ellipse;whiteSpace=wrap;html=1;fontSize=18;" parent="1" vertex="1">
          <mxGeometry x="270" y="260" width="130" height="80" as="geometry" />
        </mxCell>
        <mxCell id="VzAytHsf84ptwid28OPW-29" value="&lt;font style=&quot;font-size: 12px;&quot;&gt;8.1.2 Dodanie stada&lt;/font&gt;" style="ellipse;whiteSpace=wrap;html=1;fontSize=18;" parent="1" vertex="1">
          <mxGeometry x="140" y="140" width="130" height="60" as="geometry" />
        </mxCell>
        <mxCell id="VzAytHsf84ptwid28OPW-30" value="&lt;font style=&quot;font-size: 12px;&quot;&gt;8.1.3 &lt;/font&gt;&lt;font style=&quot;font-size: 12px;&quot;&gt;Edycja stada&lt;br&gt;&lt;/font&gt;" style="ellipse;whiteSpace=wrap;html=1;fontSize=18;" parent="1" vertex="1">
          <mxGeometry x="260" y="110" width="130" height="60" as="geometry" />
        </mxCell>
        <mxCell id="VzAytHsf84ptwid28OPW-31" value="&lt;font style=&quot;font-size: 12px;&quot;&gt;8.1.4 &lt;/font&gt;&lt;font style=&quot;font-size: 12px;&quot;&gt;Usunięcie stada&lt;br&gt;&lt;/font&gt;" style="ellipse;whiteSpace=wrap;html=1;fontSize=18;" parent="1" vertex="1">
          <mxGeometry x="400" y="110" width="140" height="60" as="geometry" />
        </mxCell>
        <mxCell id="VzAytHsf84ptwid28OPW-38" value="" style="endArrow=classic;html=1;rounded=0;entryX=0.5;entryY=0;entryDx=0;entryDy=0;exitX=0.1;exitY=0.863;exitDx=0;exitDy=0;exitPerimeter=0;" parent="1" source="VzAytHsf84ptwid28OPW-18" target="yx_y9nf9KPECeYAKMQg5-13" edge="1">
          <mxGeometry width="50" height="50" relative="1" as="geometry">
            <mxPoint x="370" y="210" as="sourcePoint" />
            <mxPoint x="235" y="370" as="targetPoint" />
          </mxGeometry>
        </mxCell>
        <mxCell id="VzAytHsf84ptwid28OPW-39" value="&lt;font style=&quot;font-size: 12px;&quot;&gt;&amp;lt;&amp;lt;Extends&amp;gt;&amp;gt;&lt;/font&gt;" style="edgeLabel;html=1;align=center;verticalAlign=middle;resizable=0;points=[];rotation=0;" parent="VzAytHsf84ptwid28OPW-38" vertex="1" connectable="0">
          <mxGeometry x="-0.1225" relative="1" as="geometry">
            <mxPoint as="offset" />
          </mxGeometry>
        </mxCell>
        <mxCell id="VzAytHsf84ptwid28OPW-45" value="" style="endArrow=classic;html=1;rounded=0;entryX=0;entryY=0;entryDx=0;entryDy=0;exitX=0.692;exitY=0.983;exitDx=0;exitDy=0;exitPerimeter=0;" parent="1" source="VzAytHsf84ptwid28OPW-29" target="VzAytHsf84ptwid28OPW-18" edge="1">
          <mxGeometry width="50" height="50" relative="1" as="geometry">
            <mxPoint x="410" y="380" as="sourcePoint" />
            <mxPoint x="300" y="410" as="targetPoint" />
          </mxGeometry>
        </mxCell>
        <mxCell id="VzAytHsf84ptwid28OPW-46" value="&lt;font style=&quot;font-size: 12px;&quot;&gt;&amp;lt;&amp;lt;Extends&amp;gt;&amp;gt;&lt;/font&gt;" style="edgeLabel;html=1;align=center;verticalAlign=middle;resizable=0;points=[];rotation=0;" parent="VzAytHsf84ptwid28OPW-45" vertex="1" connectable="0">
          <mxGeometry x="-0.1225" relative="1" as="geometry">
            <mxPoint x="-9" y="-3" as="offset" />
          </mxGeometry>
        </mxCell>
        <mxCell id="VzAytHsf84ptwid28OPW-48" value="" style="endArrow=classic;html=1;rounded=0;entryX=0.431;entryY=0.025;entryDx=0;entryDy=0;exitX=0.5;exitY=1;exitDx=0;exitDy=0;entryPerimeter=0;" parent="1" source="VzAytHsf84ptwid28OPW-30" target="VzAytHsf84ptwid28OPW-18" edge="1">
          <mxGeometry width="50" height="50" relative="1" as="geometry">
            <mxPoint x="630" y="310" as="sourcePoint" />
            <mxPoint x="521" y="352" as="targetPoint" />
          </mxGeometry>
        </mxCell>
        <mxCell id="VzAytHsf84ptwid28OPW-49" value="&lt;font style=&quot;font-size: 12px;&quot;&gt;&amp;lt;&amp;lt;Extends&amp;gt;&amp;gt;&lt;/font&gt;" style="edgeLabel;html=1;align=center;verticalAlign=middle;resizable=0;points=[];rotation=0;" parent="VzAytHsf84ptwid28OPW-48" vertex="1" connectable="0">
          <mxGeometry x="-0.1225" relative="1" as="geometry">
            <mxPoint x="-3" y="-3" as="offset" />
          </mxGeometry>
        </mxCell>
        <mxCell id="VzAytHsf84ptwid28OPW-50" value="" style="endArrow=classic;html=1;rounded=0;entryX=0.754;entryY=0.1;entryDx=0;entryDy=0;exitX=0.2;exitY=0.95;exitDx=0;exitDy=0;entryPerimeter=0;exitPerimeter=0;" parent="1" source="VzAytHsf84ptwid28OPW-31" target="VzAytHsf84ptwid28OPW-18" edge="1">
          <mxGeometry width="50" height="50" relative="1" as="geometry">
            <mxPoint x="650" y="380" as="sourcePoint" />
            <mxPoint x="540" y="380" as="targetPoint" />
          </mxGeometry>
        </mxCell>
        <mxCell id="VzAytHsf84ptwid28OPW-51" value="&lt;font style=&quot;font-size: 12px;&quot;&gt;&amp;lt;&amp;lt;Extends&amp;gt;&amp;gt;&lt;/font&gt;" style="edgeLabel;html=1;align=center;verticalAlign=middle;resizable=0;points=[];rotation=0;" parent="VzAytHsf84ptwid28OPW-50" vertex="1" connectable="0">
          <mxGeometry x="-0.1225" relative="1" as="geometry">
            <mxPoint x="-3" y="-3" as="offset" />
          </mxGeometry>
        </mxCell>
        <mxCell id="VzAytHsf84ptwid28OPW-69" value="&lt;font style=&quot;font-size: 12px;&quot;&gt;8.1.5 &lt;/font&gt;&lt;font style=&quot;font-size: 12px;&quot;&gt;Wybór stada&lt;br&gt;&lt;/font&gt;" style="ellipse;whiteSpace=wrap;html=1;fontSize=18;" parent="1" vertex="1">
          <mxGeometry x="550" y="120" width="130" height="60" as="geometry" />
        </mxCell>
        <mxCell id="VzAytHsf84ptwid28OPW-70" value="&lt;font style=&quot;font-size: 12px;&quot;&gt;8.1.1.4 &lt;/font&gt;&lt;font style=&quot;font-size: 12px;&quot;&gt;Dodanie &lt;br&gt;krowy do stada&lt;br&gt;&lt;/font&gt;" style="ellipse;whiteSpace=wrap;html=1;fontSize=18;" parent="1" vertex="1">
          <mxGeometry x="640" y="340" width="130" height="60" as="geometry" />
        </mxCell>
        <mxCell id="VzAytHsf84ptwid28OPW-71" value="&lt;font style=&quot;font-size: 12px;&quot;&gt;8.1.6 &lt;/font&gt;&lt;font style=&quot;font-size: 12px;&quot;&gt;Wyszukanie krów&lt;br&gt;&lt;/font&gt;" style="ellipse;whiteSpace=wrap;html=1;fontSize=18;" parent="1" vertex="1">
          <mxGeometry x="630" y="180" width="140" height="60" as="geometry" />
        </mxCell>
        <mxCell id="VzAytHsf84ptwid28OPW-72" value="&lt;font style=&quot;font-size: 12px;&quot;&gt;8.1.1.7 Odczyt wykresu przyrostów wagi&lt;/font&gt;" style="ellipse;whiteSpace=wrap;html=1;fontSize=18;" parent="1" vertex="1">
          <mxGeometry x="520" y="530" width="140" height="80" as="geometry" />
        </mxCell>
        <mxCell id="VzAytHsf84ptwid28OPW-73" value="&lt;font style=&quot;font-size: 12px;&quot;&gt;8.1.1.8 Odczyt wykresu wydajności mlecznej krowy&lt;/font&gt;&lt;font style=&quot;font-size: 12px;&quot;&gt;&lt;br&gt;&lt;/font&gt;" style="ellipse;whiteSpace=wrap;html=1;fontSize=18;" parent="1" vertex="1">
          <mxGeometry x="395" y="580" width="140" height="100" as="geometry" />
        </mxCell>
        <mxCell id="VzAytHsf84ptwid28OPW-74" value="" style="endArrow=classic;html=1;rounded=0;exitX=0.054;exitY=0.75;exitDx=0;exitDy=0;exitPerimeter=0;entryX=0.908;entryY=0.213;entryDx=0;entryDy=0;entryPerimeter=0;" parent="1" source="VzAytHsf84ptwid28OPW-69" target="VzAytHsf84ptwid28OPW-18" edge="1">
          <mxGeometry width="50" height="50" relative="1" as="geometry">
            <mxPoint x="605" y="220" as="sourcePoint" />
            <mxPoint x="535" y="382" as="targetPoint" />
          </mxGeometry>
        </mxCell>
        <mxCell id="VzAytHsf84ptwid28OPW-75" value="&lt;font style=&quot;font-size: 12px;&quot;&gt;&amp;lt;&amp;lt;Extends&amp;gt;&amp;gt;&lt;/font&gt;" style="edgeLabel;html=1;align=center;verticalAlign=middle;resizable=0;points=[];rotation=0;" parent="VzAytHsf84ptwid28OPW-74" vertex="1" connectable="0">
          <mxGeometry x="-0.1225" relative="1" as="geometry">
            <mxPoint x="-3" y="-3" as="offset" />
          </mxGeometry>
        </mxCell>
        <mxCell id="VzAytHsf84ptwid28OPW-76" value="" style="endArrow=classic;html=1;rounded=0;exitX=0.023;exitY=0.617;exitDx=0;exitDy=0;exitPerimeter=0;entryX=0.985;entryY=0.288;entryDx=0;entryDy=0;entryPerimeter=0;" parent="1" source="VzAytHsf84ptwid28OPW-70" target="NULd5oDMj3_SJmyYAAv3-1" edge="1">
          <mxGeometry width="50" height="50" relative="1" as="geometry">
            <mxPoint x="657" y="335" as="sourcePoint" />
            <mxPoint x="545" y="392" as="targetPoint" />
          </mxGeometry>
        </mxCell>
        <mxCell id="VzAytHsf84ptwid28OPW-77" value="&lt;font style=&quot;font-size: 12px;&quot;&gt;&amp;lt;&amp;lt;Extends&amp;gt;&amp;gt;&lt;/font&gt;" style="edgeLabel;html=1;align=center;verticalAlign=middle;resizable=0;points=[];rotation=0;" parent="VzAytHsf84ptwid28OPW-76" vertex="1" connectable="0">
          <mxGeometry x="-0.1225" relative="1" as="geometry">
            <mxPoint x="-3" y="-3" as="offset" />
          </mxGeometry>
        </mxCell>
        <mxCell id="VzAytHsf84ptwid28OPW-78" value="" style="endArrow=classic;html=1;rounded=0;exitX=0;exitY=0.5;exitDx=0;exitDy=0;entryX=0.992;entryY=0.4;entryDx=0;entryDy=0;entryPerimeter=0;" parent="1" source="VzAytHsf84ptwid28OPW-71" target="VzAytHsf84ptwid28OPW-18" edge="1">
          <mxGeometry width="50" height="50" relative="1" as="geometry">
            <mxPoint x="649" y="452" as="sourcePoint" />
            <mxPoint x="553" y="423" as="targetPoint" />
          </mxGeometry>
        </mxCell>
        <mxCell id="VzAytHsf84ptwid28OPW-79" value="&lt;font style=&quot;font-size: 12px;&quot;&gt;&amp;lt;&amp;lt;Extends&amp;gt;&amp;gt;&lt;/font&gt;" style="edgeLabel;html=1;align=center;verticalAlign=middle;resizable=0;points=[];rotation=0;" parent="VzAytHsf84ptwid28OPW-78" vertex="1" connectable="0">
          <mxGeometry x="-0.1225" relative="1" as="geometry">
            <mxPoint x="-3" y="-3" as="offset" />
          </mxGeometry>
        </mxCell>
        <mxCell id="VzAytHsf84ptwid28OPW-80" value="" style="endArrow=classic;html=1;rounded=0;exitX=0.293;exitY=0.038;exitDx=0;exitDy=0;exitPerimeter=0;entryX=0.769;entryY=0.925;entryDx=0;entryDy=0;entryPerimeter=0;" parent="1" source="VzAytHsf84ptwid28OPW-72" target="NULd5oDMj3_SJmyYAAv3-1" edge="1">
          <mxGeometry width="50" height="50" relative="1" as="geometry">
            <mxPoint x="608" y="568" as="sourcePoint" />
            <mxPoint x="526" y="443" as="targetPoint" />
          </mxGeometry>
        </mxCell>
        <mxCell id="VzAytHsf84ptwid28OPW-81" value="&lt;font style=&quot;font-size: 12px;&quot;&gt;&amp;lt;&amp;lt;Extends&amp;gt;&amp;gt;&lt;/font&gt;" style="edgeLabel;html=1;align=center;verticalAlign=middle;resizable=0;points=[];rotation=0;" parent="VzAytHsf84ptwid28OPW-80" vertex="1" connectable="0">
          <mxGeometry x="-0.1225" relative="1" as="geometry">
            <mxPoint x="-3" y="-3" as="offset" />
          </mxGeometry>
        </mxCell>
        <mxCell id="VzAytHsf84ptwid28OPW-82" value="" style="endArrow=classic;html=1;rounded=0;exitX=0.5;exitY=0;exitDx=0;exitDy=0;entryX=0.5;entryY=1;entryDx=0;entryDy=0;" parent="1" source="VzAytHsf84ptwid28OPW-73" target="NULd5oDMj3_SJmyYAAv3-1" edge="1">
          <mxGeometry width="50" height="50" relative="1" as="geometry">
            <mxPoint x="618" y="578" as="sourcePoint" />
            <mxPoint x="536" y="453" as="targetPoint" />
          </mxGeometry>
        </mxCell>
        <mxCell id="VzAytHsf84ptwid28OPW-83" value="&lt;font style=&quot;font-size: 12px;&quot;&gt;&amp;lt;&amp;lt;Extends&amp;gt;&amp;gt;&lt;/font&gt;" style="edgeLabel;html=1;align=center;verticalAlign=middle;resizable=0;points=[];rotation=0;" parent="VzAytHsf84ptwid28OPW-82" vertex="1" connectable="0">
          <mxGeometry x="-0.1225" relative="1" as="geometry">
            <mxPoint x="-3" y="-3" as="offset" />
          </mxGeometry>
        </mxCell>
        <mxCell id="NULd5oDMj3_SJmyYAAv3-1" value="&lt;font style=&quot;font-size: 12px;&quot;&gt;8.1.1 Zarządzanie krową&lt;br&gt;&lt;/font&gt;" style="ellipse;whiteSpace=wrap;html=1;fontSize=18;" parent="1" vertex="1">
          <mxGeometry x="390" y="360" width="130" height="80" as="geometry" />
        </mxCell>
        <mxCell id="NULd5oDMj3_SJmyYAAv3-5" value="" style="endArrow=classic;html=1;rounded=0;exitX=-0.023;exitY=0.4;exitDx=0;exitDy=0;exitPerimeter=0;entryX=0.969;entryY=0.675;entryDx=0;entryDy=0;entryPerimeter=0;" parent="1" source="VzAytHsf84ptwid28OPW-70" target="VzAytHsf84ptwid28OPW-18" edge="1">
          <mxGeometry width="50" height="50" relative="1" as="geometry">
            <mxPoint x="653" y="387" as="sourcePoint" />
            <mxPoint x="561" y="432" as="targetPoint" />
          </mxGeometry>
        </mxCell>
        <mxCell id="NULd5oDMj3_SJmyYAAv3-6" value="&lt;font style=&quot;font-size: 12px;&quot;&gt;&amp;lt;&amp;lt;Include&amp;gt;&amp;gt;&lt;/font&gt;" style="edgeLabel;html=1;align=center;verticalAlign=middle;resizable=0;points=[];rotation=0;" parent="NULd5oDMj3_SJmyYAAv3-5" vertex="1" connectable="0">
          <mxGeometry x="-0.1225" relative="1" as="geometry">
            <mxPoint x="-3" y="-3" as="offset" />
          </mxGeometry>
        </mxCell>
        <mxCell id="NULd5oDMj3_SJmyYAAv3-7" value="&lt;font style=&quot;font-size: 12px;&quot;&gt;8.1.1.5 &lt;/font&gt;&lt;font style=&quot;font-size: 12px;&quot;&gt;Edycja &lt;br&gt;danych krowy&lt;br&gt;&lt;/font&gt;" style="ellipse;whiteSpace=wrap;html=1;fontSize=18;" parent="1" vertex="1">
          <mxGeometry x="640" y="410" width="130" height="60" as="geometry" />
        </mxCell>
        <mxCell id="NULd5oDMj3_SJmyYAAv3-8" value="&lt;font style=&quot;font-size: 12px;&quot;&gt;8.1.1.6 &lt;/font&gt;&lt;font style=&quot;font-size: 12px;&quot;&gt;Usunięcie krowy&lt;/font&gt;" style="ellipse;whiteSpace=wrap;html=1;fontSize=18;" parent="1" vertex="1">
          <mxGeometry x="640" y="485" width="130" height="60" as="geometry" />
        </mxCell>
        <mxCell id="NULd5oDMj3_SJmyYAAv3-9" value="" style="endArrow=classic;html=1;rounded=0;exitX=0.023;exitY=0.3;exitDx=0;exitDy=0;entryX=1.015;entryY=0.625;entryDx=0;entryDy=0;entryPerimeter=0;exitPerimeter=0;" parent="1" source="NULd5oDMj3_SJmyYAAv3-7" target="NULd5oDMj3_SJmyYAAv3-1" edge="1">
          <mxGeometry width="50" height="50" relative="1" as="geometry">
            <mxPoint x="653" y="387" as="sourcePoint" />
            <mxPoint x="561" y="432" as="targetPoint" />
          </mxGeometry>
        </mxCell>
        <mxCell id="NULd5oDMj3_SJmyYAAv3-10" value="&lt;font style=&quot;font-size: 12px;&quot;&gt;&amp;lt;&amp;lt;Extends&amp;gt;&amp;gt;&lt;/font&gt;" style="edgeLabel;html=1;align=center;verticalAlign=middle;resizable=0;points=[];rotation=0;" parent="NULd5oDMj3_SJmyYAAv3-9" vertex="1" connectable="0">
          <mxGeometry x="-0.1225" relative="1" as="geometry">
            <mxPoint x="-3" y="-3" as="offset" />
          </mxGeometry>
        </mxCell>
        <mxCell id="NULd5oDMj3_SJmyYAAv3-11" value="" style="endArrow=classic;html=1;rounded=0;exitX=0;exitY=0;exitDx=0;exitDy=0;entryX=0.908;entryY=0.85;entryDx=0;entryDy=0;entryPerimeter=0;" parent="1" source="NULd5oDMj3_SJmyYAAv3-8" target="NULd5oDMj3_SJmyYAAv3-1" edge="1">
          <mxGeometry width="50" height="50" relative="1" as="geometry">
            <mxPoint x="663" y="397" as="sourcePoint" />
            <mxPoint x="571" y="442" as="targetPoint" />
          </mxGeometry>
        </mxCell>
        <mxCell id="NULd5oDMj3_SJmyYAAv3-12" value="&lt;font style=&quot;font-size: 12px;&quot;&gt;&amp;lt;&amp;lt;Extends&amp;gt;&amp;gt;&lt;/font&gt;" style="edgeLabel;html=1;align=center;verticalAlign=middle;resizable=0;points=[];rotation=0;" parent="NULd5oDMj3_SJmyYAAv3-11" vertex="1" connectable="0">
          <mxGeometry x="-0.1225" relative="1" as="geometry">
            <mxPoint x="-3" y="-3" as="offset" />
          </mxGeometry>
        </mxCell>
        <mxCell id="NULd5oDMj3_SJmyYAAv3-13" value="&lt;font style=&quot;font-size: 12px;&quot;&gt;8.1.1.3 Zarządzanie&lt;br&gt;pomiarami wagi&lt;br&gt;&lt;/font&gt;" style="ellipse;whiteSpace=wrap;html=1;fontSize=18;" parent="1" vertex="1">
          <mxGeometry x="540" y="650" width="130" height="80" as="geometry" />
        </mxCell>
        <mxCell id="NULd5oDMj3_SJmyYAAv3-14" value="&lt;font style=&quot;font-size: 12px;&quot;&gt;8.1.1.1 Zarządzanie udojami&lt;br&gt;&lt;/font&gt;" style="ellipse;whiteSpace=wrap;html=1;fontSize=18;" parent="1" vertex="1">
          <mxGeometry x="220" y="505" width="130" height="80" as="geometry" />
        </mxCell>
        <mxCell id="NULd5oDMj3_SJmyYAAv3-15" value="&lt;font style=&quot;font-size: 12px;&quot;&gt;8.1.1.2 Zarządzanie&lt;br&gt;okresami laktacji&lt;br&gt;&lt;/font&gt;" style="ellipse;whiteSpace=wrap;html=1;fontSize=18;" parent="1" vertex="1">
          <mxGeometry x="140" y="600" width="130" height="80" as="geometry" />
        </mxCell>
        <mxCell id="NULd5oDMj3_SJmyYAAv3-17" value="" style="endArrow=classic;html=1;rounded=0;exitX=1;exitY=0;exitDx=0;exitDy=0;entryX=0.208;entryY=0.938;entryDx=0;entryDy=0;entryPerimeter=0;" parent="1" source="NULd5oDMj3_SJmyYAAv3-14" target="NULd5oDMj3_SJmyYAAv3-1" edge="1">
          <mxGeometry width="50" height="50" relative="1" as="geometry">
            <mxPoint x="450" y="540" as="sourcePoint" />
            <mxPoint x="465" y="450" as="targetPoint" />
          </mxGeometry>
        </mxCell>
        <mxCell id="NULd5oDMj3_SJmyYAAv3-18" value="&lt;font style=&quot;font-size: 12px;&quot;&gt;&amp;lt;&amp;lt;Include&amp;gt;&amp;gt;&lt;/font&gt;" style="edgeLabel;html=1;align=center;verticalAlign=middle;resizable=0;points=[];rotation=0;" parent="NULd5oDMj3_SJmyYAAv3-17" vertex="1" connectable="0">
          <mxGeometry x="-0.1225" relative="1" as="geometry">
            <mxPoint x="-3" y="-3" as="offset" />
          </mxGeometry>
        </mxCell>
        <mxCell id="NULd5oDMj3_SJmyYAAv3-19" value="" style="endArrow=none;html=1;rounded=0;exitX=0.454;exitY=-0.037;exitDx=0;exitDy=0;exitPerimeter=0;" parent="1" source="NULd5oDMj3_SJmyYAAv3-15" edge="1">
          <mxGeometry width="50" height="50" relative="1" as="geometry">
            <mxPoint x="390" y="420" as="sourcePoint" />
            <mxPoint x="200" y="510" as="targetPoint" />
          </mxGeometry>
        </mxCell>
        <mxCell id="NULd5oDMj3_SJmyYAAv3-20" value="" style="endArrow=classic;html=1;rounded=0;entryX=0.031;entryY=0.688;entryDx=0;entryDy=0;entryPerimeter=0;" parent="1" target="NULd5oDMj3_SJmyYAAv3-1" edge="1">
          <mxGeometry width="50" height="50" relative="1" as="geometry">
            <mxPoint x="200" y="510" as="sourcePoint" />
            <mxPoint x="427" y="445" as="targetPoint" />
          </mxGeometry>
        </mxCell>
        <mxCell id="NULd5oDMj3_SJmyYAAv3-21" value="&lt;font style=&quot;font-size: 12px;&quot;&gt;&amp;lt;&amp;lt;Include&amp;gt;&amp;gt;&lt;/font&gt;" style="edgeLabel;html=1;align=center;verticalAlign=middle;resizable=0;points=[];rotation=0;" parent="NULd5oDMj3_SJmyYAAv3-20" vertex="1" connectable="0">
          <mxGeometry x="-0.1225" relative="1" as="geometry">
            <mxPoint x="-3" y="-3" as="offset" />
          </mxGeometry>
        </mxCell>
        <mxCell id="NULd5oDMj3_SJmyYAAv3-22" value="" style="endArrow=classic;html=1;rounded=0;exitX=0.029;exitY=0.25;exitDx=0;exitDy=0;entryX=1;entryY=1;entryDx=0;entryDy=0;exitPerimeter=0;" parent="1" source="VzAytHsf84ptwid28OPW-73" target="NULd5oDMj3_SJmyYAAv3-14" edge="1">
          <mxGeometry width="50" height="50" relative="1" as="geometry">
            <mxPoint x="647" y="374" as="sourcePoint" />
            <mxPoint x="406" y="324" as="targetPoint" />
          </mxGeometry>
        </mxCell>
        <mxCell id="NULd5oDMj3_SJmyYAAv3-23" value="&lt;font style=&quot;font-size: 12px;&quot;&gt;&amp;lt;&amp;lt;Include&amp;gt;&amp;gt;&lt;/font&gt;" style="edgeLabel;html=1;align=center;verticalAlign=middle;resizable=0;points=[];rotation=0;" parent="NULd5oDMj3_SJmyYAAv3-22" vertex="1" connectable="0">
          <mxGeometry x="-0.1225" relative="1" as="geometry">
            <mxPoint x="-3" y="-3" as="offset" />
          </mxGeometry>
        </mxCell>
        <mxCell id="NULd5oDMj3_SJmyYAAv3-24" value="" style="endArrow=classic;html=1;rounded=0;exitX=-0.014;exitY=0.6;exitDx=0;exitDy=0;entryX=1;entryY=0.5;entryDx=0;entryDy=0;exitPerimeter=0;" parent="1" source="VzAytHsf84ptwid28OPW-73" target="NULd5oDMj3_SJmyYAAv3-15" edge="1">
          <mxGeometry width="50" height="50" relative="1" as="geometry">
            <mxPoint x="405" y="630" as="sourcePoint" />
            <mxPoint x="331" y="583" as="targetPoint" />
          </mxGeometry>
        </mxCell>
        <mxCell id="NULd5oDMj3_SJmyYAAv3-25" value="&lt;font style=&quot;font-size: 12px;&quot;&gt;&amp;lt;&amp;lt;Include&amp;gt;&amp;gt;&lt;/font&gt;" style="edgeLabel;html=1;align=center;verticalAlign=middle;resizable=0;points=[];rotation=0;" parent="NULd5oDMj3_SJmyYAAv3-24" vertex="1" connectable="0">
          <mxGeometry x="-0.1225" relative="1" as="geometry">
            <mxPoint x="-3" y="-3" as="offset" />
          </mxGeometry>
        </mxCell>
        <mxCell id="NULd5oDMj3_SJmyYAAv3-26" value="" style="endArrow=none;html=1;rounded=0;entryX=0;entryY=0.5;entryDx=0;entryDy=0;" parent="1" target="NULd5oDMj3_SJmyYAAv3-13" edge="1">
          <mxGeometry width="50" height="50" relative="1" as="geometry">
            <mxPoint x="130" y="690" as="sourcePoint" />
            <mxPoint x="440" y="370" as="targetPoint" />
          </mxGeometry>
        </mxCell>
        <mxCell id="NULd5oDMj3_SJmyYAAv3-27" value="" style="endArrow=none;html=1;rounded=0;exitX=0.029;exitY=0.632;exitDx=0;exitDy=0;exitPerimeter=0;" parent="1" source="yx_y9nf9KPECeYAKMQg5-1" edge="1">
          <mxGeometry width="50" height="50" relative="1" as="geometry">
            <mxPoint x="390" y="420" as="sourcePoint" />
            <mxPoint x="130" y="690" as="targetPoint" />
          </mxGeometry>
        </mxCell>
        <mxCell id="NULd5oDMj3_SJmyYAAv3-28" value="" style="endArrow=classic;html=1;rounded=0;entryX=-0.008;entryY=0.65;entryDx=0;entryDy=0;entryPerimeter=0;" parent="1" target="NULd5oDMj3_SJmyYAAv3-1" edge="1">
          <mxGeometry width="50" height="50" relative="1" as="geometry">
            <mxPoint x="130" y="490" as="sourcePoint" />
            <mxPoint x="404" y="425" as="targetPoint" />
          </mxGeometry>
        </mxCell>
        <mxCell id="NULd5oDMj3_SJmyYAAv3-29" value="&lt;font style=&quot;font-size: 12px;&quot;&gt;&amp;lt;&amp;lt;Include&amp;gt;&amp;gt;&lt;/font&gt;" style="edgeLabel;html=1;align=center;verticalAlign=middle;resizable=0;points=[];rotation=0;" parent="NULd5oDMj3_SJmyYAAv3-28" vertex="1" connectable="0">
          <mxGeometry x="-0.1225" relative="1" as="geometry">
            <mxPoint x="-3" y="-3" as="offset" />
          </mxGeometry>
        </mxCell>
        <mxCell id="NULd5oDMj3_SJmyYAAv3-30" value="" style="endArrow=classic;html=1;rounded=0;exitX=0.5;exitY=1;exitDx=0;exitDy=0;entryX=0.408;entryY=0;entryDx=0;entryDy=0;entryPerimeter=0;" parent="1" source="VzAytHsf84ptwid28OPW-72" target="NULd5oDMj3_SJmyYAAv3-13" edge="1">
          <mxGeometry width="50" height="50" relative="1" as="geometry">
            <mxPoint x="405" y="630" as="sourcePoint" />
            <mxPoint x="331" y="583" as="targetPoint" />
          </mxGeometry>
        </mxCell>
        <mxCell id="NULd5oDMj3_SJmyYAAv3-31" value="&lt;font style=&quot;font-size: 12px;&quot;&gt;&amp;lt;&amp;lt;Include&amp;gt;&amp;gt;&lt;/font&gt;" style="edgeLabel;html=1;align=center;verticalAlign=middle;resizable=0;points=[];rotation=0;" parent="NULd5oDMj3_SJmyYAAv3-30" vertex="1" connectable="0">
          <mxGeometry x="-0.1225" relative="1" as="geometry">
            <mxPoint x="-3" y="-3" as="offset" />
          </mxGeometry>
        </mxCell>
      </root>
    </mxGraphModel>
  </diagram>
</mxfile>
